<!-- icon666.com - MILLIONS vector ICONS FREE --><svg version="1.1" id="Layer_1" xmlns="http://www.w3.org/2000/svg" xmlns:xlink="http://www.w3.org/1999/xlink" x="0px" y="0px" viewBox="0 0 512 512" style="enable-background:new 0 0 512 512;" xml:space="preserve"><g><g><path d="M362.108,102.4h41.061l2.2-102.4h-81.606c-42.928,0-124.105,21.853-124.089,102.858 c-0.044,0.872-0.983,19.453-0.228,67.808h-92.817v91.022h93.867V512h110.933V261.689h91.022v-91.022h-91.022v-22.993 C311.431,130.207,325.886,102.4,362.108,102.4z M379.697,193.422v45.511h-91.022v250.311h-65.422V238.933h-93.867v-45.511h93.261 l-0.233-12.028c-1.106-54.478-0.024-77.392,0-78.181c0-79.167,97.228-80.458,101.367-80.458h58.344l-1.233,56.889h-18.783 c-45.367,0-73.433,34.64-73.433,68.029v45.749H379.697z"></path></g></g></svg>